/* XPM */
static char *floor_xpm[] = {
"16 16 2 1",
"  c #D3D3D3",
". c #A9A9A9",
"                ",
"  ..............",
"  .          .  ",
"  .          .  ",
"  .          .  ",
"  .          .  ",
"  .          .  ",
"  .          .  ",
"  .          .  ",
"  .          .  ",
"  .          .  ",
"  .          .  ",
"  .          .  ",
"  .          .  ",
"  ..............",
"                "};
