/* XPM */
static char *player_xpm[] = {
"16 16 3 1",
"  c #00BFFF",
". c #1E90FF",
"X c #000000",
"                ",
"       ..       ",
"      .XX.      ",
"     .XXXX.     ",
"    .XXXXXX.    ",
"   .XXXXXXXX.   ",
"  .XXXXXXXXXX.  ",
" .XXXXXXXXXXXX. ",
".XXXXXXXXXXXXXX.",
"      XX        ",
"     XXXX       ",
"    XXXXXX      ",
"   XXXXXXXX     ",
"  XXXXXXXXXX    ",
" XXXXXXXXXXXX   ",
"XXXXXXXXXXXXXXXX"};
