/* XPM */
static char *C_item_1[] = {
/* columns rows colors chars-per-pixel */
"64 64 228 2 ",
"   c #050000",
".  c #170000",
"X  c #260606",
"o  c #2C0C0B",
"O  c #340905",
"+  c #3D0A05",
"@  c #330E0C",
"#  c #3C0D09",
"$  c #31100F",
"%  c #3C110D",
"&  c #371715",
"*  c #3D1311",
"=  c #3D201D",
"-  c #382427",
";  c #372C34",
":  c #3A2B32",
">  c #490702",
",  c #440B05",
"<  c #4B0B06",
"1  c #440E0A",
"2  c #4C0E09",
"3  c #530A07",
"4  c #590B06",
"5  c #540E09",
"6  c #5B0D09",
"7  c #42110E",
"8  c #4C110D",
"9  c #55120D",
"0  c #5B120C",
"q  c #58180F",
"w  c #4F0E13",
"e  c #451512",
"r  c #4C1513",
"t  c #481B19",
"y  c #541512",
"u  c #5C1612",
"i  c #5D1A15",
"p  c #5A1C1A",
"a  c #660B06",
"s  c #640E0B",
"d  c #6B0E0C",
"f  c #720E0C",
"g  c #64110C",
"h  c #6B110E",
"j  c #73110E",
"k  c #7B110F",
"l  c #671717",
"z  c #641A14",
"x  c #631D19",
"c  c #6B1D1A",
"v  c #741411",
"b  c #7B1412",
"n  c #771916",
"m  c #7C1C1B",
"M  c #4D211E",
"N  c #64211C",
"B  c #6D251E",
"V  c #71231D",
"C  c #7C201F",
"Z  c #731D20",
"A  c #7A1E22",
"S  c #462725",
"D  c #442B2B",
"F  c #572624",
"G  c #462E36",
"H  c #473232",
"J  c #4A3637",
"K  c #463A3D",
"L  c #4A3B3C",
"P  c #573939",
"I  c #642222",
"U  c #6D2422",
"Y  c #672B2A",
"T  c #732622",
"R  c #7A2525",
"E  c #722824",
"W  c #7B2A25",
"Q  c #742A29",
"!  c #7C2C2B",
"~  c #78332C",
"^  c #693737",
"/  c #633A3B",
"(  c #783534",
")  c #753C3C",
"_  c #463C40",
"`  c #4C3F40",
"'  c #653F40",
"]  c #4E4446",
"[  c #534344",
"{  c #5B4243",
"}  c #584649",
"|  c #54484B",
" . c #5E5053",
".. c #614244",
"X. c #6A4345",
"o. c #72474B",
"O. c #870F0D",
"+. c #920E0D",
"@. c #82110F",
"#. c #8A100F",
"$. c #97100F",
"%. c #831311",
"&. c #8C1312",
"*. c #831916",
"=. c #871A18",
"-. c #8B1D1B",
";. c #931413",
":. c #9B1615",
">. c #921817",
",. c #9C1817",
"<. c #931B1A",
"1. c #9C1B1A",
"2. c #A30F0F",
"3. c #A21716",
"4. c #A61717",
"5. c #A41A19",
"6. c #AB1919",
"7. c #B61D1C",
"8. c #8B221B",
"9. c #98211F",
"0. c #AA231E",
"q. c #841B21",
"w. c #852524",
"e. c #802B26",
"r. c #8B2628",
"t. c #832D2B",
"y. c #962626",
"u. c #84312D",
"i. c #8B322E",
"p. c #933D28",
"a. c #8A2C30",
"s. c #843332",
"d. c #8C3433",
"f. c #8A3938",
"g. c #943434",
"h. c #973539",
"j. c #9B3A3B",
"k. c #A42523",
"l. c #A72829",
"z. c #B22423",
"x. c #B42C2A",
"c. c #BD2B2A",
"v. c #BB322E",
"b. c #A32C30",
"n. c #A73539",
"m. c #B73534",
"M. c #C12D2C",
"N. c #C4312E",
"B. c #C53635",
"V. c #8F4334",
"C. c #8B443E",
"Z. c #B14E2D",
"A. c #CD4D2C",
"S. c #F1512D",
"D. c #FC5931",
"F. c #F86A3A",
"G. c #FD7C3E",
"H. c #9A3E42",
"J. c #B73C42",
"K. c #C33D42",
"L. c #8A4A45",
"P. c #984747",
"I. c #97524B",
"U. c #A5454A",
"Y. c #B74647",
"T. c #B35E45",
"R. c #AB4D53",
"E. c #BE4C53",
"W. c #A75758",
"Q. c #BA565B",
"!. c #9F665F",
"~. c #B96753",
"^. c #B55C61",
"/. c #9C6561",
"(. c #AD6666",
"). c #B86669",
"_. c #B8696E",
"`. c #BD6C73",
"'. c #A87971",
"]. c #BE7579",
"[. c #C4464C",
"{. c #D2454A",
"}. c #CE4F55",
"|. c #EF565F",
" X c #D26E45",
".X c #C8724F",
"XX c #ED754A",
"oX c #CA5B62",
"OX c #D65B63",
"+X c #EF5C67",
"@X c #CC6E6C",
"#X c #D5726A",
"$X c #D96C73",
"%X c #C87778",
"&X c #E86C70",
"*X c #EA747C",
"=X c #BD807E",
"-X c #FB854B",
";X c #F08F5C",
":X c #CF947F",
">X c #EB9268",
",X c #F69A6A",
"<X c #FBA368",
"1X c #C47C81",
"2X c #DC7F87",
"3X c #B68E88",
"4X c #C78487",
"5X c #D78C87",
"6X c #D3908A",
"7X c #C99795",
"8X c #D2979A",
"9X c #E68389",
"0X c #EA9293",
"qX c #EEAA8D",
"wX c #D49EA0",
"eX c #D7A5A7",
"rX c #DAAAAC",
"tX c #DBB0AF",
"yX c #DAB4B3",
"uX c #E1B7B8",
"iX c #E3B9BA",
"pX c #ECC4BB",
"aX c #E6BFC0",
"sX c #E8C7C7",
"dX c #EDCFD0",
"fX c #EED5D5",
"gX c #F1D8D8",
"hX c #F5E6E6",
/* pixels */
"] ] ] ] ] ] ] ] ] ] ] ] ] ] ] ] ] ] ] ] ] ] ] ] ] ] ] ] ] ] ] ] ] ] ] ] ] ] ] ] ] ] ] ] ] ] ] ] ] ] ] ] ] ] ] ] ] ] ] ] ] ] ] ] ",
"] ] ] ] ] ] ] ] ] ] ] ] ] ] ] ] ] ] ] ] ] ] ] ] ] ] ] ] ] ] ] ] ] ] ] ] ] ] ] ] ] ] ] ] ] ] ] ] ] ] ] ] ] ] ] ] ] ] ] ] ] ] ] ] ",
"] ] ] ] ] ] ] ] ] ] ] ] ] ] ] ] ] ] ] ] ] ] ] ] ] ] ] ] ] ] ] ] ] ] ] ] ] ] ] ] ] ] ] ] ] ] ] ] ] ] ] ] ] ] ] ] ] ] ] ] ] ] ] ] ",
"] ] ] ] ] ] ] ] ] ] ] ] ] ] ] ] ] ] ] ] ] ] ] ] ] ] ] ] ] ] ] ] ] ] ] ] _ _ _ _ _ _ _ _ ] ] _ _ _ _ _ _ _ _ _ _ ] ] ] ] ] ] ] ] ",
"] ] ] ] ] ] ] ] ] ] ] ] ] ] ] ] ] ] ] ] ] ] ] ] ] ] ] ] ] ] ] ] ] ] ] K ; ; ; ; ; ; ; ; ] K ; ; ; ; ; ; ; ; ; ; _ ] ] ] ] ] ] ] ",
"] ] ] ] ] ] ] ] ] ] ] ] ] ] ] ] ] ] ] ] ] ] ] ] ] ] ] ] ] ] ] ] ] ] _ ] ; ; ; ; ; ; ; ; _ ] ; ; ; ; ; ; ; ; ; ; _ ] ] ] ] ] ] ] ",
"] ] ] ] ] ] ] ] ] ] ] ] ] ] ] ] ] ] ] ] ] ] ] ] ] ] ] ] ] ] ] ] ] _ ; ; ] | | | _ _ _ _ ; ; [ | | | | | | | _ _ ] ] ] ] ] ] ] ] ",
"] ] ] ] ] ] ] ] ] ] ] ] ] ] ] ] ] ] ] ] ] ] ] ] ] ] ] ] ] ] ] ] ] _ ; ; |  . . .| ] ] _ ; ; |  . . . . . . .| ] ] ] ] ] ] ] ] ] ",
"] ] ] ] ] ] ] ] ] ] ] ] ] ] ] ] ] ] ] ] ] ] ] ] ] ] ] ] ] ] ] ] ] _ ; ; |  .| | ] ] ] _ ; ; |  .| | | | | | ] ] ] ] ] ] ] ] ] ] ",
"] ] ] ] ] ] ] ] ] ] ] ] ] ] ] ] ] ] ] ] ] ] ] ] ] ] ] ] ] ] ] ] ] _ ; _ |  .| ] ] ] ] _ ; K |  .| ] ] ] ] ] ] ] ] ] ] ] ] ] ] ] ",
"] ] ] ] ] ] ] ] ] ] ] ] ] ] ] ] ] ] ] ] ] ] ] ] ] ] ] ] ] ] ] ] ] ] _ _ } o.{ ] ] ] ] ] { / [ | ] ] { / i.( ] ` ] ] ] ] ] ] ] ] ",
"] ] ] ] ] ] ] ] ] ] ] ] ] ] ] ] ] ] ] ] ] ] ] ] ] ] | ..X.[ ] ] ] ] { X.`.[.Q ` { ..[ o.OXn.I ` ..) e.C <.C F t ] ] ] ] ] ] ] ] ",
"] ] ] ] ] ] ] ] ] ] ] ] ] ] ] ] ] ] ] ] ] ] ] ] ] ] s.m.l.~ | ] ] ' m oXOXy.8 r C 8.y.OX[.Z 7 m 9.*.h @.3.3 8 + ] ] ] ] ] ] ] ] ",
"] ] ] ] ] ] ] ] ] ] ] ] ] ] ] ] ] ] ] ] ] ] ] ] ] ) l.m.k 8 S ^ Y b n.9Xn.< > j k k n.*Xr., j &.&.&.%.5.l 6 5 S ] ] ] ] ] ] ] ] ",
"] ] ] ] ] ] ] ] ] ] ] ] ] ] ] ] ] ] ] ] ] ] ] ] ) r.8.1.6 < 3 0 b +.).*Xl > @.;.&.%.%X$X3 j y.@.j ;.7.9.5 j * K ] ] ] ] ] ] ] ] ",
"] ] ] ] ] ] ] ] ] ] ] ] ] ] ] ] ] ] ] ] ] ] [ [ Y 2 9 w.3 , < h :.#.oX[.6 f &.&.&.>.oXH.a &.&.k #.%.3.n 0 0 - ] ] ] ] ] ] ] ] ] ",
"] ] ] ] ] ] ] ] ] ] ] ] ] ] ] ] ] ] ] ] ] ] ] ] D O 8 m < < d ;.;.&.K.y.@.&.#.&.;.1.{.r.#.&.%.@.>.%.8.d g * ` ] ] ] ] ] ] ] ] ] ",
"] ] ] ] ] ] ] ] ] ] ] ] ] ] ] ] ] ] ] ] ] ] ' P e O 9 l 3 ;.:.;.;.>.1.&.;.&.&.$.:.5.x.<.;.&.@.b &.6.&.g g D ] ] ] ] ] ] ] ] ] ] ",
"] ] ] ] ] ] ] ] ] ] ] ] ] ] ] ] ] ] ] ] ] ] ( r.i O g j h :.;.;.;.:.:.+.#.+.$.4.6.5.4.:.&.#.k &.;.5.@.0 e ` ] ] ] ] ] ] ] ] ] ] ",
"] ] ] ] ] ] ] ] ] ] ] ] ] ] ] ] ] ] ] ] ] | t.N.c , b d &.:.:.:.3.:.k.E.5X9XM.6.6.4.:.;.%.b k ;.:.5.g 0 S ] ] ] ] ] ] ] ] ] ] ] ",
"] ] ] ] ] ] ] ] ] ] ] ] ] ] ] ] ] ] ] ] ] ^ l.x.l h j %.:.,.3.:.z.E.5XqX:X%X&XM.4.:.;.#.k k k %.&.=.5 0 Q ] ] ] ] ] ] ] ] ] ] ] ",
"] ] ] ] ] ] ] ] ] ] ] ] ] ] ] ] ] ] ] ] { h.v.8.6 h @.:.3.3.2.l.5X6X>X.X XT.[.M.3.;.%.@.k k j ;.,.%.2 T f.{ ] ] ] ] ] ] ] ] ] ] ",
"] ] ] ] ] ] ] ] ] ] ] ] ] ] ] ] ] ] { / b.v.l.s h v :.5.3.z.}.T.>X<XB L.XXA._.oX1.@.@.@.@.%.&.3.4.4.n u.g.P ] ] ] ] ] ] ] ] ] ] ",
"] ] ] ] ] ] ] ] ] ] ] ] ] ] _ _ _ K ( l.N.v.=.v j ;.4.5.7.#X;X<X<XL.. ~.-X[.L.! &.%.@.;.;.3.:.@.@.&.V f.w.p J ] ] ] ] ] ] ] ] ] ",
"] ] ] ] ] ] ] ] ] ] ] ] ] _ ; ; ; G f.c.{.0.j j @.5.5.7.}.#XS.-X;X  X S.S.A.l.Q.b.#.:.;.%.:.:.j &.v R g.V 8 H ] ] ] ] ] ] ] ] ] ",
"] ] ] ] ] ] ] ] ] ] | | | ] _ ; ; Q k.c.v.b h k ;.6.4.z.Y.;XF.G.1   V.-XS.D.Z..XE.3.5.;.;.:.:.6.k l g.i.i M ] ] ] ] ] ] ] ] ] ] ",
"] ] ] ] ] ] ] ] ] |  . . . .| | K ^ y.v.y.k b &.3.5.4.z.Y.;X;X X. #  XF.D.XX~.Y.J.:.6.4.;.k %.;.9 W j.W 0 H ] ] ] ] ] ] ] ] ] ] ",
"] ] ] ] ] ] ] ] | |  . . . . . .} ~ x.M.b %.1.,.5.5.6.0.U.qX<XZ.. p.F.F.F.,X5XH.m :.6.:.k d ;.5 l i.g.z F ] ] ] ] ] ] ] ] ] ] ] ",
"] ] ] ] ] ] ] |  . .| | | | | | / x.{.y.f 5.6.3.5.5.6.5.U.@XqX) ( -XD.<X<X5Xh.n #.3.,.k k ;.k 9 e.h.W N { ] ] ] ] ] ] ] ] ] ] ] ",
"_ _ _ _ _ _ _ ]  . .| ] ] ] ] [ a.m.J.h *.4.3.5.5.3.6.$.C =X,X~.pX X@XwX%Xa.v ;.7.6.&.&.3.4.3 c h.g.N t ] ] ] ] ] ] ] ] ] ] _ _ ",
"; ; ; ; ; ; ; ; |  .| ] ] ] ] ( l.v.*.h >.5.5.1.1.6.4.:.n (.#X6X=X~.P.1XA k :.:.5.;.4.k :.@.2 u.h.Q 0 F ] ] ] ] ] ] ] ] ] _ ; ; ",
"; ; ; ; ; ; ; _ |  .| ] ] ] X.b.N.5.g n 5.3.1.3.5.6.6.6.f ~ 6X0X$XV.w w.1.6.4.:.#.&.;.h &.6 V j.e.V M K ] ] ] ] ] ] ] ] _ _ ; ; ",
"| | | | | | _ _ ] | ] ] ] ] u.c.N.b 6 >.:.;.:.5.5.5.5.6.#.( oXJ.A d %.3.4.:.4.;.&.;.d k @.q i.d.W F | ] ] ] ] ] ] ] ] _ ; ; _ _ ",
" . . . . . .| ] ] ] ] ] ] ..k.N.1.5 h >.>.1.:.:.6.3.5.6.:.m w.%.&.:.6.3.:.:.3.:.3.&.*.5.0 T g.i.z Y ] ] ] ] ] ] ] ] ] _ ; ; _ | ",
"| | | | | | ] ] ] ] ] ] [ i.B.B.h 0 %.>.>.;.;.3.:.:.:.:.3.6.6.:.&.&.1.6.5.3.@.#.j d k @.z g.i.W q S ] ] ] ] ] ] ] ] ] _ ; ; |  .",
"] ] ] ] ] ] ] ] ] ] ] ] / k.N.8.5 v 9.K.n.&.&.$.$.;.:.3.3.;.4.$.;.:.:.c.B.:.&.:.b d %.4 c h.i.c , D ] ] ] ] ] ] ] ] ] _ ; ; |  .",
"] ] ] ] ] ] ] ] ] ] ] { r.z.9.g 3 y.$XoX%.@.@.*.r.@.:.3.6.3.7.h.;.4.&.m.*Xy.@.&.;.;.f 9 W j.s.q * K ] ] ] ] ] ] ] ] ] _ ; ; |  .",
"] ] ] ] ] ] ] ] ] ] [ W 9.k.j , -.9X2XR k O.y.oXr.;.3.:.&.:.>.2Xq.$.k l.2XR.4 g %.5.6 l s.C.U 8 S ] ] ] ] ] ] ] ] ] ] _ ; ; |  .",
"] ] ] ] ] ] ] ] ] ] / =.0.*.< 6 K.0XU.5 ;.y.*Xh.a ;.;.$.k 4.>.0XH.&.%.5.+XE.5 s &.%.5 U s.L.p % J ] ] ] ] ] ] ] ] ] ] _ ; ; _ | ",
"_ _ _ _ _ _ _ K ] P ! Y.Y.g 3 &.+XOXw.6 %.OX$Xl #.@.>.l.@.:.m 2XH.a k k.|.oXr s :.6 p Q s.U 8 t K _ _ _ ] ] _ _ _ _ _ ; ; ; _ _ ",
"; ; ; ; ; ; ; ; : r q i u.V d 0.{.K.Z < r.2XK.4 + < 6 5 j :.m &Xg., 6 k.|.OXr d %.5 E ! s.z , - ; ; ; ; ] _ ; ; ; ; ; ; ; ; ; ; ",
"; ; ; ; ; ; ; ; = 5 9 < + < g C n.b.l 2 b.K.q.< , 5 4 < 3 &.y.}.R s k b.}.[.y f 3 c ! d.V q & ; ; ; ; ; _ _ ; ; ; ; ; ; ; ; ; ; ",
"_ _ _ _ _ _ _ _ t v g > O O + 7 A Z u , p q.l w % e y 1 , 0 A a.w s f r.n.d.9 h 9 T u.t.V 1 - _ _ _ _ _ ; ; ] | | | _ _ _ _ _ _ ",
"] ] ] ] ] ] ] ] 8 &.h 1 O o o X o e $ O * I e o $ $ @ % r r Q U w + 1 l l 8 7 g c d.W W z * ` ] ] ] ] _ ; ; |  . . .| ] ] ] ] ] ",
"] ] ] ] ] ] ] ] 8 %.-.z y e e r F e 7 % $ o X $ @ * @ @ $ 7 I Q I I p Z I y V c V d.V V q S ] ] ] ] ] _ ; ; _ | | | ] ] ] ] ] ] ",
"] ] ] ] ] ] ] ] r h j 1 e p N x Y ^ ( W R ! Q p r e e r r r 1 2 p I Y U p I U N L.V W z q L ] ] ] ] ] _ ; ; ] | ] ] ] ] ] ] ] ] ",
"] ] ] ] ] ] ] ] D 8 h 2 O % r N V Q Q ^ L.f.g.h.j.j.a.! ! H.W.I.s.! ! h.H.s.T L.f.e.! 2 = ] ] ] ] ] ] ] _ ] |  .| ] ] ] ] ] ] ] ",
"] ] ] ] ] ] ] ] [ D y 5 O + , # 7 N ! g.f.f.a.g.j.R._.`.^.P.H.W.1X1X).R.^.W.].wX_.W.B # L ] ] ] ] ] ] ] ] |  . .| ] ] ] ] ] ] ] ",
"] ] ] ] ] ] ] ] ] ] J P H D M q , 2 y N d.j.U.@X@X^.W.W.(.1X%XQ.W._.8XeX4X4XyXfXdX4XU D ] ] ] ] ] ] ] ] ] ] | | ] ] ] ] ] ] ] ] ",
"] ] ] ] ] ] ] ] ] ] ] ] ] ] | P M 7 # 2 i ! P.(.4XeX8X7X4X).(.`.%X@X^.7XsXpXgXgXsX!.r L ] ] ] ] ] ] ] ] ] ] ] ] ] ] ] ] ] ] ] ] ",
"] ] ] ] ] ] ] ] ] ] ] ] ] ] ] ] ] K D & # , u f./.'.7X8XrXtXrX8X8XeXeX1X].dXhXgXyX) 7 ` ] ] ] ] ] ] ] ] ] ] ] ] ] ] ] ] ] ] ] ] ",
"] ] ] ] ] ] ] ] ] ] ] ] ] ] ] ] ] ] [ ` J H S % y I H.I.(.4X8XrXuXaXsXsXyXdXhXfX3Xq D ] ] ] ] ] ] ] ] ] ] ] ] ] ] ] ] ] ] ] ] ] ",
"] ] ] ] ] ] ] ] ] ] ] ] ] ] ] ] ] ] ] ] ] ] ] L & * 1 z T w.P.).8X8XeXiXsXhXgXyXI.9 L ] ] ] ] ] ] ] ] ] ] ] ] ] ] ] ] ] ] ] ] ] ",
"] ] ] ] ] ] ] ] ] ] ] ] ] ] ] ] ] ] ] ] ] ] ] ] ] ] D & % u N u.(.7XeXaXyXdXfX7XV S ] ] ] ] ] ] ] ] ] ] ] ] ] ] ] ] ] ] ] ] ] ] ",
"] ] ] ] ] ] ] ] ] ] ] ] ] ] ] ] ] ] ] ] ] ] ] ] ] ] ] ] L D t % u ! L.3XtXpXdX/.u K ] ] ] ] ] ] ] ] ] ] ] ] ] ] ] ] ] ] ] ] ] ] ",
"] ] ] ] ] ] ] ] ] ] ] ] ] ] ] ] ] ] ] ] _ _ _ _ _ _ _ _ K _ ] ; G & 1 g N L.'.N e _ _ K _ _ _ _ ] ] _ _ _ _ _ _ _ _ ] ] ] ] ] ] ",
"] ] ] ] ] ] ] ] ] ] ] ] ] ] ] ] ] ] ] _ ; ; ; ; ; ; ; ; ; ; ; ; ] K - $ # < > , - ; ; ; ; ; ; ; ] _ ; ; ; ; ; ; ; ; _ ] ] ] ] ] ",
"] ] ] ] ] ] ] ] ] ] ] ] ] ] ] ] ] ] ] ] ; ; ; ; ; ; ; ; ; ; ; ; _ _ ; ; : & * * ; ; ; ; ; ; ; ; _ _ ; ; ; ; ; ; ; ; _ ] ] ] ] ] ",
"] ] ] ] ] ] ] ] ] ] ] ] ] ] ] ] ] ] ] ] _ _ | | | | | | _ _ _ _ ; ; _ _ | | | | | | _ _ _ _ _ _ ; ; _ _ | | | | _ _ ] ] ] ] ] ] ",
"] ] ] ] ] ] ] ] ] ] ] ] ] ] ] ] ] ] ] ] ] |  . . . . . .| ] ] _ ; ; _ |  . . . . . .| ] ] ] ] _ ; ; _ |  . . . .| ] ] ] ] ] ] ] ",
"] ] ] ] ] ] ] ] ] ] ] ] ] ] ] ] ] ] ] ] ] ] | | | | | | ] ] ] _ ; ; |  .| | | | | | ] ] ] ] ] _ ; ; |  .| | | | ] ] ] ] ] ] ] ] ",
"] ] ] ] ] ] ] ] ] ] ] ] ] ] ] ] ] ] ] ] ] ] ] ] ] ] ] ] ] ] ] _ ; _ |  .| ] ] ] ] ] ] ] ] ] ] _ ; _ |  .| ] ] ] ] ] ] ] ] ] ] ] ",
"] ] ] ] ] ] ] ] ] ] ] ] ] ] ] ] ] ] ] ] ] ] ] ] ] ] ] ] ] ] ] ] _ ]  . .| ] ] ] ] ] ] ] ] ] ] ] _ ]  . .| ] ] ] ] ] ] ] ] ] ] ] ",
"] ] ] ] ] ] ] ] ] ] ] ] ] ] ] ] ] ] ] ] ] ] ] ] ] ] ] ] ] ] ] ] ] |  . .| ] ] ] ] ] ] ] ] ] ] ] ] |  . .| ] ] ] ] ] ] ] ] ] ] ] "
};
