/* XPM */
static char *other[] = {
/* columns rows colors chars-per-pixel */
"64 64 48 1 ",
"  c #2E252D",
". c #332930",
"X c #332931",
"o c #332A31",
"O c #342A32",
"+ c #352B33",
"@ c #362C33",
"# c #372C34",
"$ c #382D35",
"% c #392E36",
"& c #3A2F37",
"* c #3B3037",
"= c #3B3137",
"- c #3D3239",
"; c #3F343A",
": c #40363B",
"> c #41353C",
", c #43393E",
"< c #44393E",
"1 c #453C3F",
"2 c #463C40",
"3 c #483E41",
"4 c #4A3F43",
"5 c #4A4043",
"6 c #4B4144",
"7 c #4D4345",
"8 c #4D4445",
"9 c #4E4446",
"0 c #4F4546",
"q c #504647",
"w c #504548",
"e c #52464A",
"r c #54474B",
"t c #53484A",
"y c #54494B",
"u c #564A4C",
"i c #574B4D",
"p c #56494E",
"a c #584B4F",
"s c #584C4F",
"d c #5A4D50",
"f c #5B4E51",
"g c #5B4F51",
"h c #5C4F52",
"j c #5E5053",
"k c #5F5254",
"l c #605255",
"z c #645659",
/* pixels */
"99999999999999999999999999999999999999999999999999999977999997q9",
"999999999999999999999999999999999979999999w99999q9q9w9w9q99999w7",
"99999999999999999999999999999999999999999w97999wq99q7w7797979997",
"99999999999799999999999999999999999951212222973<1111222379q79999",
"9999999999999999999999999999999999q3-@.@+++&33-.@++++.+*3q7q9999",
"99999999999999999999999999999999993;-*&*@@+&<<-&&&&-&&@-39q9997q",
"99999999799999999999999999999999w3--5ut9722>*-3fuurrww337999q797",
"9999999999999999999999999999999972.&fzkfw7w2.&uzljkklhu79797997q",
"9999999999999997999999999999999q92+&ulfrwwq2@*ykfwyuuwqq79q97797",
"99999999999999999999999999999999q3&-uf997993*:yfw79797797q799w9q",
"999999999999999999999999999999997733www7999933w9w97999q77797997w",
"9999999999999999999999999999999999q999999797www7999999979w7q9979",
"99999999999999999999999999999999999q9799999999999999q799797999q7",
"9999999999999999999999999999999999999999999999999999977ww7qq9979",
"9999979999999999999999999999999999999999999999999999q797979779q7",
"999799999999999999999999999999999997999999999999999997q7q97q9q79",
"9999999999999999999997999999999999999999999999999999999999999799",
"9999999999999999999999999999999999999999999999999999999999999999",
"9999999999799999999979999999999999999999999999799999999999999999",
"9999999999999999999999993399999999799999999999999999999999999999",
"999999999999999999999993**29999999q97999999999999999999999999999",
"999999999999999999999qw1.+2qqq9999999799999999999999999999999999",
"999999999997999w9q999qw2++2wq9q99qq99999999999999999999999999999",
"999997999999792<2379322:.+:2222<11139999999999999999999999999999",
"99999999999973*++*33-...  .+++++@@@&2999999999999999999999999999",
"999999999qqyr9>&+&<<-*****&&#+++++@-3999999999999999999999999999",
"999999999qfkkffw5:&-3fruurrw3222<<139999999999999999999999999799",
"99999999wufkkhkft1.&uzlklklhy9999qq9999999999999999999997999999q",
"w999q99tffuquyytq1@*tlstrrrrw99w99999999999999999999999999999799",
"221<11<9hky9777993*:ukt7779799999999999999999999999999999999q932",
"@+++++.;fkr999999919fjw977799999999999999999999999999999999992-@",
"&&&&&&+;wjw97999999ykku99ww7999999999999999999999999999999993;&+",
"rrruaq33qqq9999999qyjlr797w979979999999999999999999999999995**;1",
"llllkjy9q9799999997wfhw9q977q7q799999999999999999999999999q1@@7t",
"ruyyyqq979999999999qqqq779q7979q9999999999999999999999999q91@*9k",
"79777q999999999999999q9qq797q97999999999999999999999999999q<@*sz",
"9979999999999999999797q7777997qw9999999999999999999999999991O*tz",
"w77q9q999999999999999w799q7w7q979999999999999999999q999q9qq1@*9j",
"qqqwqqwwq9w999999999977qq997797q9999999999799q999qq7979qqq91@@9t",
"<22<<3<<<379999999999979779q7w99999999999997511,<115793<11,;@@;<",
"+++++++++*3q999999999999q9779q77999999999993*@.@+++=33&+@@@.  .@",
"+++++++++*39999999999999799q77q9999999999993*@@@+++*<<-&***@@+++",
"<22<11<11397999999999999999999779999999999995111<<<<&-way93<11<1",
"qqqqq9q99q779999999999999999q7q99999999999999q9q9q9<+&qkjjy99999",
"99q99q999q7q9999799q99979999999999999999999999999qq1++3yuqq9q99q",
"99999999q79799999w77997q9999999999999999999999999993**9qq9999999",
"99999999799w9799q7799w97999999999999999999999999999939sfq9999999",
"99999999q9779q9997q9779q9999999999999999999999999999qqffy9999999",
"99999999999999997q9q79q7979q9999999999999999999999999qyqq9999999",
"999999999999999997797q97q797999999999999999999999999999999999999",
"99999999999999999q7777997q7w979999999999999999999999999999999999",
"999999999999999979w79w7q7979999999999999999999999999999999999999",
"999999999999999979qqq7999q79q79999999999999999999999999999999999",
"99999999999999999q7979q9q7q9q99q999999q9999qq9999999q99999999999",
"99999999999999999797q9q9qqqq9q9q99q9qqqqqqq9q999999q9q9q99999999",
"99999999999999997q79311<<2<2<3<39931<111<1111113992<111113999999",
"99999999999999999q93*++.++++++@*33*@.@.@@++++++*33&++++++*399999",
"979999997999999999q3*+&-&&&&+++*<<*@&*****++++@*<<&+@&&&@*399999",
"9999999999999999997935wuruuq312>*&;59ityuw5<<12>*&:9wuuw32999999",
"999999999999999997999qhlhljftqq3++3ijkjjlfy999q2.+3ahllsy9999999",
"999999999979999997999qryuryqwqq<.&qfityyyqq99qq<+*9juyytq9999999",
"999999999999999999999997977q7993&>fly99979q999q1*;ijt79999999999",
"99999999999999999999999997999q7937fjt7799999999939jjt99999999999",
"999999999999999999999999999997979rjjy9799999999q9yjfy99999999999"
};