/* XPM */
static char *P_hero_1[] = {
/* columns rows colors chars-per-pixel */
"64 64 124 2 ",
"   c #131313",
".  c #151515",
"X  c #201414",
"o  c #282019",
"O  c #31201C",
"+  c #36261F",
"@  c #272727",
"#  c gray16",
"$  c #2A2A2A",
"%  c #2C2A2B",
"&  c #2D2C2D",
"*  c #372425",
"=  c #382525",
"-  c #3A2525",
";  c #392626",
":  c #3D2727",
">  c #3C2B21",
",  c #3E2F25",
"<  c #372629",
"1  c #37292D",
"2  c #312F2F",
"3  c #3A2929",
"4  c #3C2B2D",
"5  c #392C2E",
"6  c #3D2C2D",
"7  c #3E2E2F",
"8  c #372C34",
"9  c #382D30",
"0  c #382C31",
"q  c #3B2E32",
"w  c #382C34",
"e  c #3B2E34",
"r  c #353233",
"t  c #393535",
"y  c #35313C",
"u  c gray22",
"i  c #412C27",
"p  c #432C28",
"a  c #432C29",
"s  c #452E29",
"d  c #422F2C",
"f  c #452F2C",
"g  c #482F28",
"h  c #46312A",
"j  c #42312D",
"k  c #43322E",
"l  c #4A312A",
"z  c #493429",
"x  c #4E372B",
"c  c #49332C",
"v  c #4A332D",
"b  c #4A342E",
"n  c #52372E",
"m  c #51382E",
"M  c #553A2E",
"N  c #402E30",
"B  c #433132",
"V  c #473334",
"C  c #413535",
"Z  c #443637",
"A  c #493632",
"S  c #4C3631",
"D  c #483736",
"F  c #4B3736",
"G  c #4B3A34",
"H  c #4F3934",
"J  c #463A38",
"K  c #44393A",
"L  c #453A3D",
"P  c #473B3C",
"I  c #473B3E",
"U  c #463C3F",
"Y  c #4B3B3A",
"T  c #4C3C3B",
"R  c #4F3F3E",
"E  c #513A33",
"W  c #543C33",
"Q  c #563E35",
"!  c #543C37",
"~  c #593D31",
"^  c #503E3D",
"/  c #5B3C3C",
"(  c #5B4031",
")  c #5F4233",
"_  c #5C4435",
"`  c #5F4737",
"'  c #50413E",
"]  c #54413D",
"[  c #55423C",
"{  c #5A443B",
"}  c #5A433C",
"|  c #5C463C",
" . c #5D463D",
".. c #624336",
"X. c #654536",
"o. c #60453A",
"O. c #62483C",
"+. c #62483E",
"@. c #64483C",
"#. c #65493D",
"$. c #6B4939",
"%. c #684B3F",
"&. c #463C40",
"*. c #4A3F40",
"=. c gray26",
"-. c #4E4241",
";. c #4C4142",
":. c #4D4244",
">. c #4D4344",
",. c #4E4446",
"<. c #484848",
"1. c gray29",
"2. c #574541",
"3. c #504445",
"4. c #594641",
"5. c #594645",
"6. c #5D4944",
"7. c #534749",
"8. c #54484B",
"9. c #5F4F51",
"0. c #5E5053",
"q. c #674B40",
"w. c #614C49",
"e. c #634E4A",
/* pixels */
",.,.,.,.,.,.,.,.,.,.,.,.,.,.,.,.,.,.,.,.,.,.,.,.,.,.,.,.:.:.,.,.,.,.:.,.,.,.,.,.,.,.,.,.,.,.,.,.,.,.,.,.,.,.,.,.,.,.,.,.,.,.,.,.",
",.,.,.,.,.,.,.,.,.,.,.,.,.,.,.,.,.,.,.,.,.,.,.,.,.,.:.,.:.-.3.3.3.3.:.-.:.:.,.,.,.,.,.,.,.,.,.,.,.,.,.,.,.,.,.,.,.,.,.,.,.,.,.,.",
",.,.,.,.,.,.,.,.,.,.,.,.,.,.,.,.,.,.,.,.,.,.,.,.,.3.-.*.R R 2.2.4.2.2.R ^ *.-.,.,.,.,.,.,.,.,.,.,.,.,.,.,.,.,.,.,.,.,.,.,.,.,.,.",
",.,.,.,.,.,.,.,.,.,.,.,.,.,.,.,.,.,.,.,.,.,.,.,.,.3.*.F E Q { #.q.+.| Q D V J &.&.&.&.&.,.,.&.&.&.&.&.&.&.&.&.&.,.,.,.,.,.,.,.,.",
",.,.,.,.,.,.,.,.,.,.,.,.,.,.,.,.,.,.,.,.,.,.,.,.:.-.J A g M X.$.$.$.X.M g f 5 e 8 w 8 8 ,.&.8 8 8 8 8 8 8 8 8 8 &.,.,.,.,.,.,.,.",
",.,.,.,.,.,.,.,.,.,.,.,.,.,.,.,.,.,.,.,.,.,.,.-.R Z A l l ~ X.$.$.$.X.~ l l d 4 0 8 8 8 &.&.8 8 8 8 8 8 8 8 8 8 &.,.,.,.,.,.,.,.",
",.,.,.,.,.,.,.,.,.,.,.,.,.,.,.,.,.,.,.,.,.,.:.*.Y v l d l M X.$.$.$.X.M g a v x V J &.&.8 8 ,.8.8.8.8.8.8.8.&.&.,.,.,.,.,.,.,.,.",
",.,.,.,.,.,.,.,.,.,.,.,.,.,.,.,.,.,.,.,.:.:.*.J A s l x n M ~ ( ..~ ~ M E x v s A J *.L 8 8 8.0.0.0.0.0.0.0.8.,.,.,.,.,.,.,.,.,.",
",.,.,.,.,.,.,.,.,.,.,.,.,.,.,.,.,.,.,.,.;.' G A l z x ~ ( M z i + p l n ~ ~ x z z x Z G 0 8 8.0.8.8.8.8.8.8.,.,.,.,.,.,.,.,.,.,.",
",.,.,.,.,.,.,.,.,.,.,.,.,.,.,.,.,.,.,.,.' C b l l l M ) ) z O X . X O l ) ) n z l l b Z 0 &.8.0.8.,.,.,.,.,.,.,.,.,.,.,.,.,.,.,.",
",.,.,.,.,.,.,.,.,.,.,.,.,.,.,.,.,.,.,.,.;.G h s x m M ( M + o       o + n ~ M n x l l E K &.,.7.,.,.,.,.,.,.,.,.,.,.,.,.,.,.,.,.",
",.,.,.,.,.,.,.,.,.,.,.,.,.,.,.,.,.,.,.,.*.G v x ~ ) M x + X X     . X o + z M ) W x l G ;.,.,.,.,.,.,.,.,.,.,.,.,.,.,.,.,.,.,.,.",
",.,.,.,.,.,.,.,.,.,.,.,.,.,.,.,.,.,.,.:.R G l n ) ) x O X . . . . . . . X O M ) ..n l G ' -.,.,.,.,.,.,.,.,.,.,.,.,.,.,.,.,.,.,.",
",.,.,.,.,.,.,.,.,.,.,.,.,.,.,.,.,.-.-.' [ E m M M x + o       . . .       o + n M M m H ' ' -.:.,.,.,.,.,.,.,.,.,.,.,.,.,.,.,.,.",
",.,.,.,.,.,.,.,.,.,.,.,.,.,.,.,.,.' T G b ( X.M z O o . .   . . . . .   . X o O s M ..( b G T ;.,.,.,.,.,.,.,.,.,.,.,.,.,.,.,.,.",
",.,.,.,.,.,.,.,.,.,.,.,.,.,.,.,.,.3.Z d n _ X.M + X . . . . . . . . . . . .   X + m X.) m k G -.,.,.,.,.,.,.,.,.,.,.,.,.,.,.,.,.",
",.,.,.,.,.,.,.,.,.,.,.,.,.,.,.,.,.-.D v n ..X.M +       . . . . . . . . .     . + M X.) m v D -.,.,.,.,.,.,.,.,.,.,.,.,.,.,.,.,.",
",.,.,.,.,.,.,.,.,.,.,.,.,.,.,.,.,.-.Z v m ..X.M + X     . . . . . . . . .     X + M X.) m v D -.,.,.,.,.,.,.,.,.,.,.,.,.,.,.,.,.",
",.,.,.,.,.,.,.,.,.,.,.,.,.,.,.,.,.-.Z v n ) X.M + X     . . . . . . . . .     X + M X...m v D -.,.,.,.,.,.,.,.,.,.,.,.,.,.,.,.,.",
",.,.,.,.,.,.,.,.,.,.,.,.,.,.,.,.,.:.G b n ) X.M +       . . . . . . . . .     . + M X...m v D -.,.,.,.,.,.,.,.,.,.,.,.,.,.,.,.,.",
",.,.,.,.,.,.,.,.,.,.,.,.,.,.:.:.-.-.C v m ..X.M + X     . . . . . . . . .     X + M X._ n v C -.,.,.,.,.,.,.,.,.,.,.,.,.,.,.,.,.",
",.,.,.,.,.,.,.,.,.,.,.,.,.,.,.:.-.T B v x m ~ m i O o X . . . . . .     . X o O > n ~ M x l B J -.:.,.,.,.,.,.,.,.,.,.,.,.,.,.,.",
",.,.,.,.,.,.,.,.,.,.,.,.,.,.:.' C r d g z z g z l z > o . . . .           o + z z l s l g l d r Z ' :.,.,.,.,.,.,.,.,.,.,.,.,.,.",
",.,.,.,.,.,.,.,.,.,.,.,.,.,.L C 4 ; g g g + + i n ..l O .   . . . . .     O n ~ M i + , s g s ; 6 J -.:.,.,.,.,.,.,.,.,.,.,.,.,.",
",.,.,.,.,.,.,.,.,.,.,.,.3.P G d h s s s i + O + n M l O X X X . o o X X X O z M x > O + , s g g v G } 3.3.,.,.,.,.,.,.,.,.,.,.,.",
",.,.,.,.,.,.,.,.,.,.8.7.-.[  ._ ..M g d : @ @ + i i + O X O r h , i $ O o + + i , + @ @ ; i g M X._ O.' *.-.,.,.,.,.,.,.,.,.,.,.",
",.,.,.,.,.,.,.,.,.8.0.9.e.%...$.X...x : $ @ $ @ + O O O O , u u H t u : O O O O + @ $ @ $ : n ..X.$...O.4.3.,.,.,.,.,.,.,.,.,.,.",
",.,.,.,.,.,.,.,.8.8.0.9.w.%.$.$.X.~ l ; @ @ @ $ + + + + + l E =.&.=.G v , + + + + $ @ @ @ ; z M X.$.$.q.4.3.,.,.,.,.,.,.,.,.,.,.",
",.,.,.,.,.,.,.8.0.0.8.8.6.#.$...M x i - @ @ @ ; i i , i z m =.<.<.<.=.n z i i i , ; @ $ @ ; , x M _ $.#.4.3.,.,.,.,.,.,.,.,.,.,.",
"&.&.&.&.&.&.&.,.0.0.8.3.4.#.X.~ x g , ; % # @ : i g g g g n =./ / / =.n l z g g i : $ @ # ; , g x ~ X.O.4.,.,.,.,.,.,.,.,.,.&.&.",
"8 8 8 8 8 8 8 8 8.0.8.3.4.{ ~ m l g , , , : , , , i , i i g u H E E r s i i , i , , i : , , i g l m ..{ 2.:.,.,.,.,.,.,.,.&.8 8 ",
"8 8 8 8 8 8 8 &.8.0.8.:.R H x l l g s s g d g , , * $ * ; - , - : : , - - ; @ - : i g s a p g z v l x S -.:.,.,.,.,.,.,.&.&.8 8 ",
"8.8.8.8.8.8.&.&.,.8.,.:.T A z h g g g l z l g d , ; * , , * # # @ $ $ : > , ; : : s g l l s z h g g g b T ;.,.,.,.,.,.&.8 8 &.&.",
"0.0.0.0.0.0.8.,.,.,.,.:.J c + i g g x g g l g g i , g x x g ; @ @ @ ; i x x s > , g g l l l l g g i , k J -.,.,.,.,.,.&.8 8 &.8.",
"8.8.8.8.8.8.,.,.,.,.,.:.J 6 ; , g g g l g g l g g g n ) ~ M i # @ $ d n ) ) m l g g l g l g l g s , ; 6 J ,.,.,.,.,.,.&.8 8 8.0.",
",.,.,.,.,.,.,.,.,.,.,.:.T t 2 & p s g l g l g g x n ..X.X.M i # @ @ i M X.X...m n l g g g l g g s & 2 t U ,.,.,.,.,.,.&.8 8 8.0.",
",.,.,.,.,.,.,.,.,.,.,.,.;.&.C e & , s g z g l x ~ ..X.$.$.M i $ @ $ d M $.$.X.) W x z g g s s , & 6 C T :.,.,.,.,.,.,.&.8 8 8.0.",
",.,.,.,.,.,.,.,.,.,.,.,.,.,.' Z 2 ; , s g g z n ~ X.$.$.X.n i $ @ @ i m X.$.$.X.( m z g g s , ; 5 Z -.,.,.,.,.,.,.,.,.&.8 8 8.0.",
",.,.,.,.,.,.,.,.,.,.,.,.,.,.:.R t : ; s i i s l n ~ ~ ~ M l : @ @ @ : l m ( ~ ~ n g s i p s 3 6 t L :.,.,.,.,.,.,.,.,.&.8 8 &.8.",
"&.&.&.&.&.&.&.&.&.&.,.,.,.,.,.,.-.Y q ; ; * ; , s z z z s i @ @ @ @ $ > l z z g g i ; ; ; * 6 C J &.&.&.,.,.&.&.&.&.&.8 8 8 &.&.",
"w 8 8 8 8 8 8 8 w 8 &.,.,.,.,.,.:.*.D r ; $ $ $ $ $ @ % $ $ $ $ # $ $ $ % $ $ % @ $ $ $ * % 6 0 8 8 8 8 ,.&.8 8 8 8 8 8 8 8 8 8 ",
"8 8 8 8 8 8 8 8 w w &.,.,.,.,.,.,.:.P Z 4 3 * $ @ @ @ @ $ $ : d i i , $ @ @ @ @ @ $ ; 3 ; 6 0 8 8 8 8 8 &.&.8 8 8 8 8 8 8 8 8 8 ",
"&.&.&.&.&.&.&.&.&.&.,.,.,.,.,.,.,.,.:.*.Y e ; @ # # @ @ $ , p u u u i : $ @ @ @ $ @ ; 6 C L L &.&.&.&.&.8 8 ,.8.8.8.&.&.&.&.&.&.",
",.,.,.,.,.,.,.,.,.,.,.,.,.,.,.,.,.,.,.,.' y & $ # # @ # ; s t E E E u s ; % $ $ $ $ & y *.,.,.,.,.,.,.&.8 8 8.0.0.0.8.,.,.,.,.,.",
",.,.,.,.,.,.,.,.,.,.,.,.,.,.,.,.,.,.,.;.' r & # # # # : d t E =.=.=.E u p ; @ $ @ $ & t 3.:.:.,.,.,.,.&.8 8 &.8.8.8.,.,.,.,.,.,.",
",.,.,.,.,.,.,.,.,.,.,.,.,.,.,.,.,.,.<.,.' y & # $ % ; i g E =.<.<.<.=.E l i ; $ @ $ % y *.3.7.:.,.,.,.&.8 8 ,.8.,.,.,.,.,.,.,.,.",
",.,.,.,.,.,.,.,.,.,.,.,.,.,.3.:.-.' ;.' K 6 < # $ ; , s l E / <.1.<./ E l s , ; $ $ ; q J *.*.*.-.;.,.,.&.,.8.0.8.,.,.,.,.,.,.,.",
",.,.,.,.,.,.,.,.,.,.,.,.,.,.:.*.t y y y r 3 * # : i s g l E / 1.1.1./ E l g s i , $ - ; r y y y C ;.:.,.,.8.0.0.8.,.,.,.,.,.,.,.",
",.,.,.,.,.,.,.,.,.,.,.,.,.,.;.J 6 & ; & ; ; $ ; i g g g l E / 1.1.1./ E l g g g i ; @ ; ; & ; % 6 J -.,.,.,.8.8.,.,.,.,.,.,.,.,.",
",.,.,.,.,.,.,.,.,.,.,.,.:.-.J B & $ $ ; - ; ; i s g g z l E / 1.1.:./ E l l g l g i ; : ; ; $ # & B J ;.:.,.,.,.,.,.,.,.,.,.,.,.",
",.,.,.,.,.,.,.,.,.,.,.:.;.Z q 3 * @ : , p s i s g l g g g E / <.1.<./ E l g l g g g i i i i , # ; 3 q C *.:.,.,.,.,.,.,.,.,.,.,.",
",.,.,.,.,.,.,.,.,.,.,.:.Y 6 * $ $ ; , g s g g g g g g g g E / <.1.<./ E l g g g h g l g g s , ; $ $ ; N J :.,.,.,.,.,.,.,.,.,.,.",
",.,.,.,.,.,.,.,.,.,.,.:.C & # # @ % p g z z l g l g g g l W / <.1.<./ H l g g l g l g l v g i $ @ @ $ 2 Z 3.,.,.,.,.,.,.,.,.,.,.",
",.,.,.,.,.,.,.,.,.,.,.:.J q # @ @ @ , g z v g l g l g g g E / <.1.<./ E l g g g l g z z g g , $ @ @ @ 2 Z -.,.,.,.,.,.,.,.,.,.,.",
",.,.,.,.,.,.,.,.,.,.,.:.J r & * : p , g g z l g l g g g l E / 1.1.<./ E l g g l g l g g g g h + : ; & r L :.3.:.,.,.,.,.,.,.,.,.",
",.,.,.,.,.,.,.,.,.,.:.:.*.G t k g g g i i g g l g l g g l E / 1.1.<./ E l g g g l g g g i i g g l k q C L L &.&.&.&.,.,.,.,.,.,.",
",.,.,.,.,.,.,.,.,.,.,.,.:.:.&.|  .( z , - , g g g l g g l H / 1.1.<./ E l l g l l g g d ; i z .._ } 0 q w 8 8 8 w 8 &.,.,.,.,.,.",
",.,.,.,.,.,.,.,.,.,.,.,.,.,.:.4.#._ E g i p l g l l g g l G / 1.1.<./ E l h g g g l l s i i n _ O.' 8 8 8 8 8 8 8 8 &.,.,.,.,.,.",
",.,.,.,.,.,.,.,.,.,.,.,.,.,.,.-.4.} W m x g z l g l g g l E / :.1.<./ E l g g l g g v g n n E [ D e &.&.8.8.8.8.&.&.,.,.,.,.,.,.",
",.,.,.,.,.,.,.,.,.,.,.,.,.,.,.:.,.'  . ...n l g z l l l l E / 1.1.1./ E l l g z z z g M ..) { J e 0 &.8.0.0.0.0.8.,.,.,.,.,.,.,.",
",.,.,.,.,.,.,.,.,.,.,.,.,.,.,.,.,.,.2.+. .Q A A v G x A A G  . .! [  .! b A A x A S A Q } q.4.&.w w 8.9.8.8.8.8.,.,.,.,.,.,.,.,.",
",.,.,.,.,.,.,.,.,.,.,.,.,.,.,.,.,.:.-.[ 4.^ T R T T T T ^ ^ 4.^ Z [ 5.5.' T T T Y R T ^ 2.[ -.&.w &.8.0.8.,.,.,.,.,.,.,.,.,.,.,.",
",.,.,.,.,.,.,.,.,.,.,.,.,.,.,.,.,.,.:.3.3.:.:.:.:.:.-.:.:.3.3.3.R :.9.9.7.:.-.:.:.:.-.,.:.,.:.,.&.,.0.0.8.,.,.,.,.,.,.,.,.,.,.,.",
",.,.,.,.,.,.,.,.,.,.,.,.,.,.,.,.,.,.3.,.:.:.,.,.,.,.,.:.,.,.,.,.,.8.0.9.8.,.,.:.,.,.,.,.,.,.,.,.,.8.0.0.8.,.,.,.,.,.,.,.,.,.,.,."
};