/* XPM */
static char *brick[] = {
/* columns rows colors chars-per-pixel */
"64 64 68 1 ",
"  c #2D232C",
". c #2D232D",
"X c #2F242D",
"o c #30262E",
"O c #31262F",
"+ c #31272F",
"@ c #312730",
"# c #332931",
"$ c #342B32",
"% c #352B33",
"& c #352C33",
"* c #372C33",
"= c #372C34",
"- c #382D34",
"; c #392E36",
": c #3A2F37",
"> c #3A3036",
", c #3B3036",
"< c #3B3037",
"1 c #3D3237",
"2 c #3C3238",
"3 c #3E3338",
"4 c #3E3339",
"5 c #3F353B",
"6 c #40353A",
"7 c #41373B",
"8 c #41373C",
"9 c #42373C",
"0 c #43383C",
"q c #43383D",
"w c #43393E",
"e c #44393D",
"r c #463C3F",
"t c #463C40",
"y c #473C40",
"u c #493E42",
"i c #493F43",
"p c #4A3F43",
"a c #4A4042",
"s c #4B4043",
"d c #4B4144",
"f c #4D4345",
"g c #4D4445",
"h c #4D4446",
"j c #4F4447",
"k c #504547",
"l c #514648",
"z c #52454A",
"x c #52464A",
"c c #52474A",
"v c #53484A",
"b c #53484B",
"n c #54494B",
"m c #55484D",
"M c #56494D",
"N c #554A4C",
"B c #574B4D",
"V c #56494E",
"C c #594D50",
"Z c #5B4E51",
"A c #5B4F51",
"S c #5C4F52",
"D c #5C5052",
"F c #5D5053",
"G c #5E5154",
"H c #5F5254",
"J c #635458",
"K c #635558",
/* pixels */
"fcFKKKKKJJKKKKKKKKJJJJKKJJJJKKKKKKKKKKKKKGnt%o=9yNGKJKKKKSNfht%.",
"cNZFFFFFFFFFSFGSFFFFFFFFFFFFGSSSGSFSSSSGGSnt-%=9fNZSGSZGGZjjct%.",
"FZNvnvnncnvnnncvnnnnvnvnnncvnnnNnnnnnnNnnhffi5%<cZNnvmvccchfft%.",
"KFvffhfhfffffhffhhhhfffffffffffhfffffffffkfffi%-cSNcjfffffcfkt%.",
"KFvfhhhhchhhfhhhhhkhhhfffhhhhhhhffffffffihhcht%-pNZZcfpcfffkft%.",
"KFvfhfssfhhhhhfchhhhchfkhhkhkhhhfcfffffvcfkhkt%%pNZZcfjfcffkkt%.",
"KFvfhsqqihffhkfhkhkfffffhhhhhkhkfffffffffkfhhy%*cSNcffjjffffke%.",
"GZcffy9qdhchhhhhhffffkfkkhkhhhhhcffcfcfffhkkhy=<mGvjkjjffhkfkt%.",
"vccdq9yffhhhkkhhfcffffffjhhhjfffffffffccfffcce%<nGNfffhfcfkkft%.",
"iiie9esfkhhkhhhkfffkfcfcjjjhjjjffkfcffffffhfht%-NGnffkfkfffhkt%.",
"7777iifkhhhhhhhkfhffhfffjjfhjhffffffcffffffcft=<NGnfkfkffffkft%.",
"1=13isiissdissisiifisidsddpdddpdfiifipiissiid9%-mGNffhfffcfhkt%.",
"111199977777777799799999997399397799979997999-@<mSvjfcfffffkft%.",
"-----=%*%-*----,3-*-%=========<<**--%%-------%o<NJmffffkfkffky%.",
"ooooooooooooo#-33-%@oooooXoo##=-%oo@ooooooo#o..<mGcfffcfkfcfft%.",
"*--,<<<-3-=%%-,1-=%---<<<<3-====%%---3<<-1---#X<mGNffffffkffkt%.",
"ricNNNNmNcpttq3-#=9dcNNmnNNcf3==6ycmmmNnmmmcp6#:mSNkfkfffkkjjt=.",
"nNFGGGGGGZmfhi3==<dNZGGGGGJZNy==pZSSJSJGSJSSny%%cZmfffkfkfffjt%.",
"GFNvcNmcNcjjcy=%9dZFNvNvnnvvft%-mSZvccNnnnnnky%%icfffkkffffkft%.",
"KFvhffffffjjfy%=dNZZvjdjhhhfjy%-kZcffffffkfkfy%%tfcffkfffkfkft%.",
"KGcffffffffjft=-cSNmjfjjhhhchy%=pmffffkfffffkt%%tffkffkffffjkt=.",
"SZNcfffcfcjjct%<NGbjjjjfhhhhhe%%ykjffkfffkkkft%%ickkkffkfkfkjy%.",
"cNZZnhfffffcft%-NGvpfjfjcfhkhi%#tjjfkfkfcfffkt=-fZcfffkfkfkfft%.",
"cNSSchhfffffft=3mGvfjfjfhhhhhy%%tjjkfffffffkft-<NJvffkfffkfkft%.",
"GZNccffjfffckio-NSmjfchhhhhhhi%%tjcfffcffjfcfy%-NGNffjfkjfjjjt=.",
"GZcffjffcffffe-=vZvjffhhhcchhy%%tjffffffjfkffq%<mSNfffjffjfjjt%.",
"ccffhfchfcfhhi%%pmjjfffffffcfy%%tcfffkcfffff9<#<NSvffkfjkffkft%.",
"cccffffffffjft%%9pppppdidsdpd9##9pfiiiiiifpt3-.<mJmfffjffjkfjt%.",
"SZcffffffhhcfy%@<5q9399993977-@#-9997q5599933=@<mJcffkfjfkfjjt=.",
"KZNffffccfhhfy=X==-====--=-=--======**=======%.<mSNfffkfjfjjjt%.",
"KSNffffffhffjt=.X@.X@@@@oooXo-qq=X@@o#oo@ooo@..<NGmffkfkfjfjft%.",
"KScfcffhffhcji%X#=<<-<<====%-,qq<=-3-<<-===<=%@-cZcfffjfjfjkft%.",
"KSbfhhjhjhfjft=@6icNmmmkityyyq<-9pcNmNNviiccp7#=ichhffjfffhcfe%.",
"KSNfjjhjhjfjjt==iZSGJGGSvkkfky%%dNGGGGSZvvZZvt==ichkfffcffffhi=.",
"KGvfhhhhjhjjjt==kSNnccNvfkfkfy%-cSNcmvmzhvmcct%=cZcfcffccfhfft%.",
"ZZNhhjjhjhfjft#3NHvfkffffkfkky-<NGNfffjjfffjfy#<NGNffffffffcht%.",
"Nchhhjhjhjhjfi%-MHmffkkfffkffy%<NGcffffjffffft%<mGcffffhfhfkct%.",
"ffjjjhjhjhhjft%-NHmffffffkfkfy%-NGvffjjfcfjjft%<mGmjfcffkfkhft%.",
"jhhjhjhhjhjjhi--NSvfffkfkffkfy%-NGmfjffjffcfjt%-mGcjffhffkfkht%.",
"hhjhjhjjhjhjfy%%vSvffkfffkffke%-vZvfjjjffffjft%3NGmffffchffhkt%.",
"jhjhjhjhkfkkhi%%pkfkfffffkfkfq%%pzvffffkffffky%-NGNhhhhhfkfkhy%.",
"hjhjhjhjfkffke%%ykkfkkfkfkfkci%%tjjffffffcfcke%-cFnhkhhhfhhff9%.",
"jhjhjhjffffkke%%ykkkkkkfkfkkft%%tcjpeepkkffkfi%%ivhhhkhhchhsi-o.",
"hjfjhjhjffkhhi*%qpppiippiiiiiq%%9ppt33tifiipi9@%qsssifidsisi3-o.",
"hjhjjhjhkfkkft%#-779696999679:@@<993333977977-@%,977q9399qq33-%.",
"jhjhhjhjfhfhft%o===-====--==*%@@===---====----oo%*===---===-==XX",
"hjhjjhjfkffhfi=.ooo@o..@ooooo....@.@@@@ooooooo.ooooo.oXXooXo#XXX",
"jhjhhjhjfkfkke-.#=:<<<<<<<<<::*--3<<<-==%%%%%%%%*%%%%***-=%%=#XX",
"hjhjhjhjhjhjjy=#7pvmMNmmNmmmNviicmNNNcsiyyyyyyyyyyyyiryirriei7%X",
"jhjfjhjhjhjhjy%=iNSSSJGGGGGGHSNNSGGGGZcfhhhchkhkffhhhhfhkhhkkr% ",
"hjhjhjjhhjhjft#-cSnmmmvNvnNvcvSSmNnnncnfhhhhhckhhccfvhhckkhhhr* ",
"jhjhjhhjjhjjjt=<vJnffffffffffcZScfffffhfkhhhhhhhhhhhhhhhfhhkkr% ",
"hjjhjhjhhjhjjt#<nKvfhhkhfffffvvvkfffhkfkhkhhkhhhhhhhcfhhhhffhr%.",
"jhhjhjhjjhjjjy=<nFvfhhhhkfkfffffffkkhhhhhhkhhhhkhhhhhhhhkffffq% ",
"hjhhjhjhhjfjhy#<BJnhhnhhfkfkfkfffkffkfhhhhhhkhkhhhchhhhhfkffe1# ",
"hhhjhjhjjhhjjy#<nFnfffhhkfffffkfffkfhkhkhhkhhhhhhhfhhhchhffyq-# ",
"hhhhhhhhhjhjjy==nJkhhkdhkdhhffffkkffcffchhhhhkkhhkkhkhhhkfqqyq%X",
"chhhhhhhjjhfdq==vCndhhvhdnhhhfdiipffffffkhkhhhhhhhhhhhhffeq9dy=.",
"hhhhvhhhjhjdq<#=snkhkhhhkfffvde73efkffhkhhffkhhhkhhhkhfieeiffy%.",
"ddssssssdidy<=X$0ddiiddiddiddre169tpfiifssssssssssssssfe-3tdf9#.",
"977777785qq<=XX#17707077777770idpiq779737777797799779993=#399-%.",
"==-*=*=====#XXX+*************:eriq:=%--------1-1-----=%=XX%%==oX",
"ooooX##X#XX#XXXXXoooooooooo@o#%%%%%.o@%.ooo%-11-%oooX@oXXXX%ooXX",
"XXXXXXXXXX X  XXXXXXXoXXXXXo      ..o......#-13-X.XXXXXXXXX.X.X."
};
